<svg xmlns="http://www.w3.org/2000/svg" viewBox="0 0 500 500"><g id="freepik--background-complete--inject-83"><circle cx="91.97" cy="95.57" r="22.84" style="fill:#f0f0f0"></circle><path d="M102.47,96.27a17.73,17.73,0,0,1-3,.17c-1.88,0-4.5.08-7.47.09h-.26V94.79c0-3.31,0-6.3.08-8.47A24.73,24.73,0,0,1,92,82.81a23.64,23.64,0,0,1,.19,3.51c0,2.17.07,5.16.07,8.47v1.48L92,96c3,0,5.59,0,7.47.09A17.73,17.73,0,0,1,102.47,96.27Z" style="fill:#e0e0e0"></path><path d="M92,76.48c.15,0,.26.86.26,1.92s-.11,1.92-.26,1.92-.26-.86-.26-1.92S91.9,76.48,92,76.48Z" style="fill:#e0e0e0"></path><path d="M102.45,79.56c.1.1-.42.78-1.15,1.52s-1.42,1.26-1.53,1.16.42-.79,1.16-1.53S102.35,79.46,102.45,79.56Z" style="fill:#e0e0e0"></path><path d="M108.53,86.21c.07.13-.63.61-1.51,1.14s-1.63.94-1.72.82.54-.71,1.45-1.26S108.47,86.08,108.53,86.21Z" style="fill:#e0e0e0"></path><path d="M112.1,96.07a6.67,6.67,0,0,1-2.62.26,6.64,6.64,0,0,1-2.61-.26,6.87,6.87,0,0,1,2.61-.26A6.9,6.9,0,0,1,112.1,96.07Z" style="fill:#e0e0e0"></path><path d="M75.82,95.72a5.94,5.94,0,0,1-2.47.26,6,6,0,0,1-2.47-.26,6.18,6.18,0,0,1,2.47-.26A6.14,6.14,0,0,1,75.82,95.72Z" style="fill:#e0e0e0"></path><path d="M78.39,103.07c.09.11-.71.9-1.8,1.78s-2,1.49-2.12,1.37.72-.91,1.8-1.78A6.09,6.09,0,0,1,78.39,103.07Z" style="fill:#e0e0e0"></path><path d="M84.72,108.75A8.05,8.05,0,0,1,83.54,111c-.72,1.19-1.31,2.16-1.44,2.09a5.27,5.27,0,0,1,1-2.36C83.83,109.52,84.6,108.66,84.72,108.75Z" style="fill:#e0e0e0"></path><path d="M92,116.07a6.9,6.9,0,0,1-.26-2.62,6.87,6.87,0,0,1,.26-2.61,6.64,6.64,0,0,1,.26,2.61A6.67,6.67,0,0,1,92,116.07Z" style="fill:#e0e0e0"></path><path d="M103.32,112.58a5.18,5.18,0,0,1-2.23-1.39,5.41,5.41,0,0,1-1.69-2c.12-.1,1,.7,2,1.63S103.4,112.46,103.32,112.58Z" style="fill:#e0e0e0"></path><path d="M108.61,106.89c-.1.1-.91-.55-1.81-1.45s-1.55-1.71-1.44-1.81.91.54,1.81,1.44S108.71,106.78,108.61,106.89Z" style="fill:#e0e0e0"></path><path d="M78.15,88.69c-.1.1-.82-.46-1.61-1.24s-1.34-1.51-1.24-1.61.82.45,1.61,1.24S78.25,88.59,78.15,88.69Z" style="fill:#e0e0e0"></path><path d="M84.68,81.81c-.1.1-.81-.44-1.58-1.21S81.78,79.13,81.88,79s.81.44,1.59,1.21S84.78,81.71,84.68,81.81Z" style="fill:#e0e0e0"></path><path d="M139.53,445.77c13.72-8,18.05-24.59,18.78-39.76.12-2.54.61-5.18-.41-7.49s-3.69-4.06-6-3.18c-2,.73-3,2.84-4.15,4.56a14.77,14.77,0,0,1-6.38,5.17c-1.68.7-3.71,1.05-5.23,0-2.08-1.38-2.09-4.41-1.86-6.92q.62-7,1.24-14a23.4,23.4,0,0,0-.15-7.52,7.81,7.81,0,0,0-4.46-5.67c-2.34-.86-5.41.27-6.11,2.69a23.07,23.07,0,0,0-.33,3.12,2.66,2.66,0,0,1-1.75,2.36c-1,.21-2-.58-2.66-1.38-2.39-2.75-3.88-6.16-5.26-9.54a46.24,46.24,0,0,0-4.82-9.8c-2.13-3-5.2-5.42-8.78-5.92s-7.6,1.41-8.8,4.86.57,7.23,2.59,10.28a56.1,56.1,0,0,0,10.76,12.09,4.67,4.67,0,0,1,1.78,2.26c.4,1.72-1.32,3.25-3,3.66-1.92.47-3.94.11-5.91.18s-4.17.76-5.07,2.55c-1.24,2.49.69,5.35,2.66,7.29A48.07,48.07,0,0,0,109.69,405a16.28,16.28,0,0,1,5.07,3c1.38,1.42-1.31,5.83-2.35,7.52s0,0-1.91-.51-3.55-1.72-5.34-2.56c-3.34-1.59-7.82-1.72-10.27,1.08a8,8,0,0,0-1.43,7,18.28,18.28,0,0,0,3.3,6.52,48.39,48.39,0,0,0,19.43,16.19c7.78,3.43,15.14,4.8,23.34,2.54" style="fill:#f0f0f0"></path><path d="M138.8,457a110.6,110.6,0,0,0-2.4-21,225.41,225.41,0,0,0-6.94-25l-2.16-6.45c-.71-2.12-1.42-4.22-2.24-6.23a113.35,113.35,0,0,0-5.36-11.27c-1.88-3.51-3.79-6.76-5.6-9.8s-3.56-5.82-5.26-8.29A89.42,89.42,0,0,0,100,357.88c-1.15-1.22-2.07-2.14-2.7-2.76l-.73-.69-.25-.22a1.91,1.91,0,0,0,.22.25l.69.73c.61.64,1.51,1.57,2.64,2.81a95.71,95.71,0,0,1,8.74,11.14c1.68,2.49,3.4,5.28,5.2,8.32s3.69,6.29,5.56,9.79a114,114,0,0,1,5.31,11.25c.81,2,1.51,4.08,2.22,6.2l2.16,6.45a232.91,232.91,0,0,1,7,24.9,112.27,112.27,0,0,1,2.5,21" style="fill:#e0e0e0"></path><path d="M124.93,398.3a5.16,5.16,0,0,0,.33-1.06c.19-.68.43-1.68.71-2.91.56-2.47,1.22-5.91,1.93-9.71s1.42-7.22,2-9.67c.3-1.23.55-2.23.73-2.91a5.64,5.64,0,0,0,.23-1.08,5.61,5.61,0,0,0-.41,1c-.23.67-.53,1.65-.86,2.87-.68,2.45-1.44,5.87-2.15,9.67s-1.32,7.14-1.8,9.73c-.22,1.17-.41,2.15-.56,2.94A5.41,5.41,0,0,0,124.93,398.3Z" style="fill:#e0e0e0"></path><path d="M93.13,389.61a7.64,7.64,0,0,0,1.28.26c.82.14,2,.34,3.48.63,2.93.56,7,1.48,11.34,2.69s8.32,2.48,11.14,3.48c1.41.49,2.54.92,3.33,1.21a6.83,6.83,0,0,0,1.23.42,6.74,6.74,0,0,0-1.17-.59c-.76-.34-1.88-.82-3.28-1.35-2.79-1.08-6.72-2.4-11.12-3.62a114.44,114.44,0,0,0-11.42-2.56c-1.47-.26-2.68-.41-3.51-.49A7.38,7.38,0,0,0,93.13,389.61Z" style="fill:#e0e0e0"></path><path d="M136.05,435.34a2.17,2.17,0,0,0,.26-.38l.64-1.12c.56-1,1.33-2.42,2.26-4.2,1.86-3.57,4.28-8.59,6.87-14.16s5-10.6,6.75-14.2L155,397l.58-1.16a2.7,2.7,0,0,0,.17-.42s-.1.12-.26.37-.39.68-.64,1.12c-.56,1-1.33,2.42-2.26,4.2-1.87,3.58-4.28,8.59-6.88,14.16s-4.95,10.6-6.74,14.21l-2.12,4.26-.58,1.17A2,2,0,0,0,136.05,435.34Z" style="fill:#e0e0e0"></path><path d="M94.27,418a1.61,1.61,0,0,0,.42.21l1.21.52,4.47,1.87c3.78,1.58,9,3.81,14.7,6.29s11,4.68,14.76,6.18c1.91.75,3.46,1.34,4.53,1.73l1.25.43a2,2,0,0,0,.44.13s-.14-.09-.41-.21l-1.21-.52L130,432.74c-3.78-1.58-9-3.82-14.71-6.3s-11-4.67-14.76-6.17c-1.9-.75-3.45-1.34-4.53-1.73l-1.24-.44A2.29,2.29,0,0,0,94.27,418Z" style="fill:#e0e0e0"></path><rect x="427.59" y="413.16" width="6.12" height="43.44" style="fill:#e0e0e0"></rect><rect x="405.69" y="413.16" width="6.12" height="43.44" style="fill:#e0e0e0"></rect><rect x="350.72" y="413.16" width="6.12" height="43.44" style="fill:#e0e0e0"></rect><rect x="331.89" y="413.16" width="6.12" height="43.44" style="fill:#e0e0e0"></rect><path d="M351.83,338.51s-16.71-4.83-21.71,2.14-5.54,74.12-5.54,74.12,32.36.59,33,0S351.83,338.51,351.83,338.51Z" style="fill:#ebebeb"></path><path d="M446.67,406.54l-1.48-127.45c-1-15.39-12.21-17.62-13.84-18.55-6.86-3.89-72.28-6.36-77.66,8.72s0,133.74,0,133.74Z" style="fill:#ebebeb"></path><path d="M446.63,403s-16.48-24.31-35.84-25.1-61.1,0-61.1,0-18.5.7-19.79,23.61V415H446.63Z" style="fill:#ebebeb"></path><path d="M446.14,338.61s-27.73-7.18-32.74,2.26-5.9,74.45-5.9,74.45,40,1.47,40.13-.21S446.14,338.61,446.14,338.61Z" style="fill:#f0f0f0"></path><path d="M447.63,338.3s-18.31-4.71-23.31,2.26S418,415.64,418,415.64s29.22.86,29.82.28S447.63,338.3,447.63,338.3Z" style="fill:#e0e0e0"></path><path d="M433.36,336.68a1.64,1.64,0,0,1,0-.32c0-.24-.05-.56-.09-.95-.06-.87-.15-2.09-.27-3.65-.21-3.2-.51-7.78-.89-13.43s-.79-12.43-1.26-19.91c-.23-3.75-.48-7.69-.73-11.77s-.29-8.35-1.51-12.47a14.82,14.82,0,0,0-3-5.52,21.57,21.57,0,0,0-4.65-4,30.27,30.27,0,0,0-10.8-4.28,36.13,36.13,0,0,0-5.43-.52l-5.17-.2c-3.33-.11-6.44-.17-9.28-.19-5.68,0-10.27.07-13.44.25-1.59.09-2.82.18-3.65.26l-.95.08h-.32a1.26,1.26,0,0,1,.32-.06l.94-.13c.83-.12,2.06-.24,3.64-.36,3.17-.24,7.77-.42,13.46-.42,2.84,0,6,0,9.3.13l5.17.17a37.51,37.51,0,0,1,5.5.51,30.65,30.65,0,0,1,11,4.32,22,22,0,0,1,4.76,4.11,15.09,15.09,0,0,1,3.07,5.7c1.25,4.23,1.22,8.53,1.52,12.59s.47,8,.7,11.77c.43,7.49.82,14.24,1.15,19.92s.55,10.23.73,13.44c.07,1.56.13,2.78.17,3.65,0,.4,0,.71,0,1A1,1,0,0,1,433.36,336.68Z" style="fill:#e0e0e0"></path><path d="M434.25,281.58a7.26,7.26,0,0,1-2.23.54,7.35,7.35,0,0,1-2.27.32,6.64,6.64,0,0,1,4.5-.86Z" style="fill:#e0e0e0"></path><path d="M436.75,284.61a13.92,13.92,0,0,1-3.3-.15,15.43,15.43,0,0,1-3.29-.4,14,14,0,0,1,6.59.55Z" style="fill:#e0e0e0"></path><path d="M435.18,307.38c0,.15-.88.21-1.93.15s-1.91-.23-1.9-.37.87-.21,1.93-.15S435.18,307.24,435.18,307.38Z" style="fill:#e0e0e0"></path><path d="M406.5,298.66A3.06,3.06,0,0,0,405,300a2.41,2.41,0,0,0-.13,2,2.08,2.08,0,0,0,2,1.18,2.1,2.1,0,0,0,2-1.24,2.4,2.4,0,0,0-.2-2,3.1,3.1,0,0,0-1.5-1.25s.21-.06.58.06a2.51,2.51,0,0,1,1.24,1,2.74,2.74,0,0,1,.33,2.36,2.7,2.7,0,0,1-4.89.08,2.75,2.75,0,0,1,.26-2.37,2.44,2.44,0,0,1,1.21-1C406.29,298.61,406.5,298.64,406.5,298.66Z" style="fill:#e0e0e0"></path><path d="M409,298.07a3.73,3.73,0,0,1-1.71.43A9.93,9.93,0,0,1,403,298a9.8,9.8,0,0,1-3.62-2.27,3.91,3.91,0,0,1-1.05-1.41c.07-.06.49.46,1.3,1.14a11.67,11.67,0,0,0,3.54,2.05,11.42,11.42,0,0,0,4,.66A14.77,14.77,0,0,1,409,298.07Z" style="fill:#e0e0e0"></path><path d="M402.76,314.78a7,7,0,0,1-.58-1.92,11.4,11.4,0,0,1-.12-4.88,6,6,0,0,1,2.89-3.91,2.79,2.79,0,0,1,2-.36,8,8,0,0,0-1.82.68,6.05,6.05,0,0,0-2.57,3.71,13.12,13.12,0,0,0,0,4.69A8.6,8.6,0,0,1,402.76,314.78Z" style="fill:#e0e0e0"></path><path d="M414.37,309.25a2.76,2.76,0,0,1-1.41-.39,7.12,7.12,0,0,1-2.66-2.32,7,7,0,0,1-1.21-3.31,2.88,2.88,0,0,1,.13-1.46,8.3,8.3,0,0,1,.23,1.41,8.12,8.12,0,0,0,1.28,3.06,8,8,0,0,0,2.41,2.29C413.87,309,414.39,309.16,414.37,309.25Z" style="fill:#e0e0e0"></path><path d="M375.64,298.66a3,3,0,0,0-1.46,1.3,2.41,2.41,0,0,0-.14,2,2.26,2.26,0,0,0,4-.06,2.44,2.44,0,0,0-.2-2,3.06,3.06,0,0,0-1.51-1.25.88.88,0,0,1,.58.06,2.47,2.47,0,0,1,1.24,1,2.71,2.71,0,0,1,.33,2.36,2.7,2.7,0,0,1-4.88.08,2.71,2.71,0,0,1,.26-2.37,2.43,2.43,0,0,1,1.2-1A.91.91,0,0,1,375.64,298.66Z" style="fill:#e0e0e0"></path><path d="M378.11,298.07a3.73,3.73,0,0,1-1.71.43,9.93,9.93,0,0,1-4.23-.54,9.72,9.72,0,0,1-3.62-2.27,3.91,3.91,0,0,1-1.05-1.41c.07-.06.49.46,1.3,1.14a11.67,11.67,0,0,0,3.54,2.05,11.42,11.42,0,0,0,4,.66A14.74,14.74,0,0,1,378.11,298.07Z" style="fill:#e0e0e0"></path><path d="M371.9,314.78a6.61,6.61,0,0,1-.58-1.92,11.38,11.38,0,0,1-.13-4.88,6,6,0,0,1,2.9-3.91,2.77,2.77,0,0,1,2-.36,8.06,8.06,0,0,0-1.81.68,6,6,0,0,0-2.57,3.71,13.14,13.14,0,0,0,0,4.69A9.05,9.05,0,0,1,371.9,314.78Z" style="fill:#e0e0e0"></path><path d="M383.5,309.25a2.74,2.74,0,0,1-1.4-.39,7.13,7.13,0,0,1-3.88-5.63,2.69,2.69,0,0,1,.14-1.46,8.3,8.3,0,0,1,.23,1.41,8.08,8.08,0,0,0,1.27,3.06,8.18,8.18,0,0,0,2.41,2.29C383,309,383.53,309.16,383.5,309.25Z" style="fill:#e0e0e0"></path><path d="M352.45,336.39a11.68,11.68,0,0,1,0,1.64c0,1.14-.05,2.63-.09,4.44-.08,3.75-.2,8.93-.27,14.66S352,368,352,371.79c0,1.81,0,3.3,0,4.44a9.39,9.39,0,0,1-.07,1.64,9.35,9.35,0,0,1-.13-1.63c-.05-1.05-.1-2.57-.14-4.45-.09-3.75-.13-8.94-.06-14.67s.25-10.91.42-14.66c.09-1.88.18-3.4.26-4.44A8.74,8.74,0,0,1,352.45,336.39Z" style="fill:#e0e0e0"></path><path d="M410,378.07l-.28,0-.81,0-3.11,0H394.31l-17-.08-10-.07c-3.48,0-7.08,0-10.74.29a43.44,43.44,0,0,0-10.49,2,28.14,28.14,0,0,0-8.71,4.69,20.93,20.93,0,0,0-3.26,3.26,17,17,0,0,0-1.29,1.8c-.4.61-.76,1.23-1.09,1.85a27.49,27.49,0,0,0-2.62,7.37,40.64,40.64,0,0,0-.57,11.36c.11,1.34.23,2.39.32,3.09l.09.81c0,.18,0,.27,0,.27s0-.09-.07-.27-.09-.47-.15-.79c-.12-.7-.27-1.75-.41-3.09a39.42,39.42,0,0,1,.41-11.45,27.28,27.28,0,0,1,2.6-7.5,20.14,20.14,0,0,1,1.1-1.89,18.77,18.77,0,0,1,1.3-1.85,21.81,21.81,0,0,1,3.31-3.35,28.73,28.73,0,0,1,8.86-4.79,43.59,43.59,0,0,1,10.6-2.08c3.7-.31,7.31-.3,10.79-.28l10,.1,17,.19,11.45.17,3.11.07.81,0Z" style="fill:#e0e0e0"></path></g><g id="freepik--Floor--inject-83"><path d="M441.9,456.6c0,.15-82.18.26-183.54.26s-183.55-.11-183.55-.26,82.16-.26,183.55-.26S441.9,456.46,441.9,456.6Z" style="fill:#263238"></path></g><g id="freepik--Charts--inject-83"><path d="M187.28,267.12c0,.15-6.52.26-14.57.26s-14.57-.11-14.57-.26,6.52-.26,14.57-.26S187.28,267,187.28,267.12Z" style="fill:#263238"></path><path d="M186.75,270.88c0,.14-6.4.26-14.31.26s-14.3-.12-14.3-.26,6.4-.27,14.3-.27S186.75,270.73,186.75,270.88Z" style="fill:#263238"></path><path d="M186.75,274.63c0,.14-6.4.26-14.31.26s-14.3-.12-14.3-.26,6.4-.26,14.3-.26S186.75,274.48,186.75,274.63Z" style="fill:#263238"></path><path d="M186.75,278.38c0,.14-6.4.26-14.31.26s-14.3-.12-14.3-.26,6.4-.26,14.3-.26S186.75,278.23,186.75,278.38Z" style="fill:#263238"></path><path d="M186.75,282.13c0,.14-6.4.26-14.31.26s-14.3-.12-14.3-.26,6.4-.26,14.3-.26S186.75,282,186.75,282.13Z" style="fill:#263238"></path><path d="M172.09,285.88a47.61,47.61,0,0,1-7,.26,47.53,47.53,0,0,1-7-.26,45.91,45.91,0,0,1,7-.26A46,46,0,0,1,172.09,285.88Z" style="fill:#263238"></path><path d="M180.25,263c0,.15-5,.26-11.1.26s-11.1-.11-11.1-.26,5-.26,11.1-.26S180.25,262.88,180.25,263Z" style="fill:#5D8EFF"></path><path d="M195,295.23s0-.28,0-.8,0-1.29,0-2.27c0-2,0-4.89-.06-8.57,0-7.37-.06-17.87-.11-30.5l.22.22-46.06,0,.25-.25h0v11.3c0,3.71,0,7.34,0,10.87,0,7.07,0,13.77,0,20l-.23-.23,33.29.12,9.41.06,2.5,0,.65,0h-.6l-2.45,0-9.36.06-33.44.12h-.23v-.23c0-6.18,0-12.88,0-20,0-3.53,0-7.16,0-10.87v-11.3h0l.27-.27,46.06,0h.23v.22c0,12.68-.08,23.24-.11,30.64,0,3.66,0,6.53-.06,8.52,0,1,0,1.7,0,2.23S195,295.23,195,295.23Z" style="fill:#263238"></path><path d="M166.5,139.12l22.14-.14a28.2,28.2,0,0,0-7.12-18.27,26.21,26.21,0,0,0-22.93-8.81c-1.06.12-2.13.29-3.22.52l-.08,0h0l6,26.68Z" style="fill:#5D8EFF"></path><path d="M173.32,166.62a26.27,26.27,0,0,0,15.07-21.53c0-.28.06-.56.08-.85s0-.35,0-.54c0-.52,0-1.06.05-1.6V142h0V142h0l-22.15.15-5.2,0-5.83,26.69v0h0a26.91,26.91,0,0,0,5.75.59A28.71,28.71,0,0,0,173.32,166.62Z" style="fill:#455a64"></path><path d="M158.53,140.55l-6-26.68a27.35,27.35,0,0,0,.18,53.41l5.82-26.69" style="fill:#263238"></path><rect x="92.5" y="258.32" width="5.99" height="45.23" style="fill:#5D8EFF"></rect><rect x="83.27" y="277.35" width="5.99" height="26.2" style="fill:#455a64"></rect><rect x="74.04" y="273.27" width="5.99" height="30.28" style="fill:#5D8EFF"></rect><rect x="64.8" y="291.34" width="5.99" height="12.21" style="fill:#455a64"></rect><rect x="110.97" y="248.44" width="5.99" height="55.11" style="fill:#5D8EFF"></rect><rect x="101.74" y="253.47" width="5.99" height="50.08" style="fill:#455a64"></rect><rect x="129.44" y="242.98" width="5.99" height="60.57" style="fill:#5D8EFF"></rect><rect x="120.2" y="231.02" width="5.99" height="72.53" style="fill:#455a64"></rect><path d="M70.64,309.23a7.08,7.08,0,0,1-2.65.26,7.08,7.08,0,0,1-2.65-.26A6.84,6.84,0,0,1,68,309,6.84,6.84,0,0,1,70.64,309.23Z" style="fill:#263238"></path><path d="M79.74,309.23a7,7,0,0,1-2.65.26,7.08,7.08,0,0,1-2.65-.26,6.84,6.84,0,0,1,2.65-.26A6.8,6.8,0,0,1,79.74,309.23Z" style="fill:#263238"></path><path d="M88.85,309.23a7.08,7.08,0,0,1-2.65.26,7,7,0,0,1-2.65-.26A6.8,6.8,0,0,1,86.2,309,6.84,6.84,0,0,1,88.85,309.23Z" style="fill:#263238"></path><path d="M98,309.23a7.08,7.08,0,0,1-2.65.26,7,7,0,0,1-2.65-.26A6.8,6.8,0,0,1,95.3,309,6.84,6.84,0,0,1,98,309.23Z" style="fill:#263238"></path><path d="M107.05,309.23a7.08,7.08,0,0,1-2.65.26,7.08,7.08,0,0,1-2.65-.26,6.84,6.84,0,0,1,2.65-.26A6.84,6.84,0,0,1,107.05,309.23Z" style="fill:#263238"></path><path d="M116.15,309.23a7.08,7.08,0,0,1-2.65.26,7.08,7.08,0,0,1-2.65-.26,6.84,6.84,0,0,1,2.65-.26A6.84,6.84,0,0,1,116.15,309.23Z" style="fill:#263238"></path><path d="M125.25,309.23a7,7,0,0,1-2.65.26,7.08,7.08,0,0,1-2.65-.26,6.84,6.84,0,0,1,2.65-.26A6.8,6.8,0,0,1,125.25,309.23Z" style="fill:#263238"></path><path d="M134.35,309.23a13.58,13.58,0,0,1-5.29,0,6.8,6.8,0,0,1,2.65-.26A6.77,6.77,0,0,1,134.35,309.23Z" style="fill:#263238"></path><path d="M137.54,314.56c0,.14-6.5.26-14.53.26s-14.54-.12-14.54-.26,6.51-.26,14.54-.26S137.54,314.41,137.54,314.56Z" style="fill:#263238"></path><path d="M120.2,317.62a25.53,25.53,0,0,1-5.1.26,25.61,25.61,0,0,1-5.1-.26,24.74,24.74,0,0,1,5.1-.26A24.66,24.66,0,0,1,120.2,317.62Z" style="fill:#263238"></path><path d="M120.9,228.39a1.46,1.46,0,0,1,.83.16,3.28,3.28,0,0,1,1.86,3.27,2.84,2.84,0,0,1-.82,1.71,3.54,3.54,0,0,1-4.07.72,3.69,3.69,0,0,1-1.78-3.74,3.31,3.31,0,0,1,.79-1.72,3.65,3.65,0,0,1,1.34-.94,3.74,3.74,0,0,1,2.29-.2c.54.14.79.32.77.35s-.29-.08-.8-.15a3.77,3.77,0,0,0-2.11.34,3.05,3.05,0,0,0-1.81,2.38,3.27,3.27,0,0,0,1.55,3.22,3.11,3.11,0,0,0,3.49-.59,2.6,2.6,0,0,0,.56-2.86,3.12,3.12,0,0,0-1.35-1.61C121.19,228.48,120.89,228.44,120.9,228.39Z" style="fill:#263238"></path><path d="M125.63,146a1.6,1.6,0,0,1-.35,0l-1,0-4,.06.13-.12c.08,7.09.13,21.21.13,37.44,0,11.81,0,22.49-.07,30.28,0,3.84-.07,7-.09,9.17,0,1,0,1.88,0,2.5a4.52,4.52,0,0,1,0,.87,5.89,5.89,0,0,1-.05-.87c0-.62,0-1.45,0-2.5,0-2.21,0-5.33-.08-9.17,0-7.79,0-18.47-.08-30.28,0-16.23.06-30.35.14-37.44v-.13h.12l4,.06,1,0Z" style="fill:#263238"></path><path d="M81.92,193.92c0,.14-6.53.26-14.58.26s-14.57-.12-14.57-.26,6.52-.26,14.57-.26S81.92,193.78,81.92,193.92Z" style="fill:#263238"></path><path d="M81.39,197.67c0,.15-6.41.26-14.31.26s-14.31-.11-14.31-.26,6.4-.26,14.31-.26S81.39,197.53,81.39,197.67Z" style="fill:#263238"></path><path d="M81.39,201.42c0,.15-6.41.26-14.31.26s-14.31-.11-14.31-.26,6.4-.26,14.31-.26S81.39,201.28,81.39,201.42Z" style="fill:#263238"></path><path d="M81.39,205.17c0,.15-6.41.26-14.31.26s-14.31-.11-14.31-.26,6.4-.26,14.31-.26S81.39,205,81.39,205.17Z" style="fill:#263238"></path><path d="M81.39,208.92c0,.15-6.41.26-14.31.26s-14.31-.11-14.31-.26,6.4-.26,14.31-.26S81.39,208.78,81.39,208.92Z" style="fill:#263238"></path><path d="M66.73,212.67a46.1,46.1,0,0,1-7,.26,46,46,0,0,1-7-.26,47.61,47.61,0,0,1,7-.26A47.72,47.72,0,0,1,66.73,212.67Z" style="fill:#263238"></path><path d="M74.88,189.82c0,.14-5,.26-11.1.26s-11.1-.12-11.1-.26,5-.26,11.1-.26S74.88,189.68,74.88,189.82Z" style="fill:#5D8EFF"></path><path d="M88.7,221.55s0-.28,0-.8,0-1.29,0-2.27c0-2,0-4.89-.06-8.57,0-7.37-.07-17.87-.11-30.5l.22.22-46.07,0c-.06.06.49-.49.26-.25h0v11.3c0,3.71,0,7.34,0,10.87,0,7.07,0,13.77,0,20l-.23-.23,33.29.11,9.41.06,2.49,0h.65l.23,0h-.83l-2.45,0-9.35.06-33.44.12H42.4v-.23c0-6.18,0-12.88,0-20,0-3.53,0-7.16,0-10.87v-11.3h0c-.24.23.31-.33.26-.27l46.07,0h.22v.22c0,12.68-.09,23.23-.11,30.64,0,3.66,0,6.53-.06,8.52,0,1,0,1.7,0,2.23S88.7,221.55,88.7,221.55Z" style="fill:#263238"></path><path d="M74.9,239.16a68.58,68.58,0,0,1-.26-8.38,68.58,68.58,0,0,1,.26-8.38,68.58,68.58,0,0,1,.26,8.38A68.58,68.58,0,0,1,74.9,239.16Z" style="fill:#263238"></path><path d="M76.81,235.34a16.34,16.34,0,0,0-1,4.14v.11l0,.75-.43-.61a8,8,0,0,1-1.65-4c.14-.05.73,1.76,2.08,3.66l-.48.14v-.12A6.15,6.15,0,0,1,76.81,235.34Z" style="fill:#263238"></path><path d="M361.33,120.93c-.14,0-.26-.67-.26-1.5s.12-1.5.26-1.5.26.67.26,1.5S361.47,120.93,361.33,120.93Z" style="fill:#263238"></path><path d="M361.33,126.94c-.14,0-.26-.67-.26-1.5s.12-1.51.26-1.51.26.68.26,1.51S361.47,126.94,361.33,126.94Z" style="fill:#263238"></path><path d="M361.33,132.94c-.14,0-.26-.67-.26-1.5s.12-1.5.26-1.5.26.67.26,1.5S361.47,132.94,361.33,132.94Z" style="fill:#263238"></path><path d="M361.33,138.93c-.14,0-.26-.67-.26-1.49s.12-1.5.26-1.5.26.67.26,1.5S361.47,138.93,361.33,138.93Z" style="fill:#263238"></path><path d="M361.33,144.93c-.14,0-.26-.67-.26-1.5s.12-1.5.26-1.5.26.67.26,1.5S361.47,144.93,361.33,144.93Z" style="fill:#263238"></path><path d="M361.33,150.92c-.14,0-.26-.67-.26-1.5s.12-1.5.26-1.5.26.67.26,1.5S361.47,150.92,361.33,150.92Z" style="fill:#263238"></path><path d="M361.33,156.92c-.14,0-.26-.68-.26-1.5s.12-1.5.26-1.5.26.67.26,1.5S361.47,156.92,361.33,156.92Z" style="fill:#263238"></path><path d="M361.33,162.91c-.14,0-.26-.67-.26-1.5s.12-1.5.26-1.5.26.67.26,1.5S361.47,162.91,361.33,162.91Z" style="fill:#263238"></path><rect x="238.5" y="42.39" width="160.54" height="68.24" rx="3.96" style="fill:#455a64"></rect><path d="M285.69,67.74a17.4,17.4,0,0,0-14.14-10.15l-.56-.06-.36,0-1.06,0h-.1l-.08,14.66v3.45L287,79.63h0a17.15,17.15,0,0,0,.44-3.79A19.12,19.12,0,0,0,285.69,67.74Z" style="fill:#fafafa"></path><path d="M266.69,77.47l0-3.24.08-14.66a18.7,18.7,0,0,0-12.15,4.57,17.33,17.33,0,0,0-6,15.11c.06.63.16,1.27.28,1.92l-.13,0c2.34,8.44,10,14.82,17.49,14.34,8.66-.55,16-5.91,17.87-14Z" style="fill:#e0e0e0"></path><path d="M330,65.18c0,.14-7.07.26-15.79.26s-15.8-.12-15.8-.26,7.07-.26,15.8-.26S330,65,330,65.18Z" style="fill:#263238"></path><path d="M330,71.25c0,.14-7.07.26-15.79.26s-15.8-.12-15.8-.26,7.07-.26,15.8-.26S330,71.1,330,71.25Z" style="fill:#263238"></path><path d="M330,77.32c0,.14-7.07.26-15.79.26s-15.8-.12-15.8-.26,7.07-.26,15.8-.26S330,77.18,330,77.32Z" style="fill:#263238"></path><path d="M330,83.39c0,.14-7.07.26-15.79.26s-15.8-.12-15.8-.26,7.07-.26,15.8-.26S330,83.25,330,83.39Z" style="fill:#263238"></path><path d="M316.89,90a14.76,14.76,0,0,1-2.71.18c-1.67,0-4,.08-6.54.08s-4.88,0-6.55-.08a14.76,14.76,0,0,1-2.71-.18,14.11,14.11,0,0,1,2.71-.19c1.67,0,4-.07,6.55-.07s4.87,0,6.54.07A14.11,14.11,0,0,1,316.89,90Z" style="fill:#263238"></path><path d="M352.48,59.6a2,2,0,0,1,.68-.36,5.8,5.8,0,0,1,2.1-.39,6.09,6.09,0,0,1,.72,0l.38.06h.05c-.13-.21.19.29.15.24h0v0l0,.1,0,.19c-.12.52-.23,1.07-.36,1.64-.26,1.18-.55,2.46-.85,3.81l0,.2h-1.53l-4.6,0h-.24V64.9a6.24,6.24,0,0,1,.65-2.69,5.52,5.52,0,0,1,1.32-1.69,5.19,5.19,0,0,1,1.16-.76c.29-.13.45-.18.46-.16s-.61.33-1.43,1.13a5.78,5.78,0,0,0-1.69,4.17l-.23-.24H355l-.25.2.9-3.79c.14-.57.28-1.12.41-1.64l0-.19,0-.09v0h0s.28.45.14.24h-.05l-.35-.07a5.31,5.31,0,0,0-.67-.08A9.71,9.71,0,0,0,352.48,59.6Z" style="fill:#e0e0e0"></path><path d="M355.66,65.81H354.6l-4.79,0a6.19,6.19,0,0,0,1.5,4,5.68,5.68,0,0,0,4.94,2l.62-.09v0c2.76-.76,4.84-3.25,4.69-5.71A6.17,6.17,0,0,0,357,60.1Z" style="fill:#fafafa"></path><path d="M352.48,81.13a5.68,5.68,0,0,0-3.31,4.62c0,.06,0,.12,0,.18s0,.08,0,.12,0,.23,0,.34v0h0v0h0l4.79,0H355l1.33-5.76h0a5.68,5.68,0,0,0-1.24-.14A6.15,6.15,0,0,0,352.48,81.13Z" style="fill:#fafafa"></path><path d="M355.66,87.33a14,14,0,0,1,.28-1.6c.22-1.07.51-2.46.86-4.14l0-.18.19,0a6,6,0,0,1,4.37,4,6,6,0,0,1,.25,3.59,6.28,6.28,0,0,1-2.21,3.16A7.44,7.44,0,0,1,357,93.43l-.26.07-.06-.27v0l.3.2a6.4,6.4,0,0,1-3.05-.15,6,6,0,0,1-2.43-1.49,6.31,6.31,0,0,1-1.81-4.46V87.1h.19l4.28.1a12.25,12.25,0,0,1,1.56.12,8.6,8.6,0,0,1-1.57.09l-4.28.06.19-.18a6,6,0,0,0,1.77,4.12,5.53,5.53,0,0,0,5.05,1.46l.25,0,.05.25v0l-.32-.2a6.84,6.84,0,0,0,2.3-1.16,5.77,5.77,0,0,0,2-2.89,5.58,5.58,0,0,0-.21-3.29,5.73,5.73,0,0,0-4-3.78l.22-.14c-.44,1.79-.81,3.23-1.07,4.2A9.32,9.32,0,0,1,355.66,87.33Z" style="fill:#e0e0e0"></path><path d="M387.53,84.21a97.65,97.65,0,0,1-10,.26,97.77,97.77,0,0,1-10-.26,92.72,92.72,0,0,1,10-.27A92.6,92.6,0,0,1,387.53,84.21Z" style="fill:#263238"></path><path d="M377.53,86.88a48.3,48.3,0,0,1-10,0,48.3,48.3,0,0,1,10,0Z" style="fill:#263238"></path><path d="M387.53,62.69a92.6,92.6,0,0,1-10,.27,92.72,92.72,0,0,1-10-.27,97.77,97.77,0,0,1,10-.26A97.65,97.65,0,0,1,387.53,62.69Z" style="fill:#263238"></path><path d="M377.53,65.37a48.3,48.3,0,0,1-10,0,48.3,48.3,0,0,1,10,0Z" style="fill:#263238"></path><path d="M339.87,101.28c-.15,0-.26-12-.26-26.89s.11-26.89.26-26.89.26,12,.26,26.89S340,101.28,339.87,101.28Z" style="fill:#263238"></path><rect x="331.38" y="168.13" width="6.2" height="55.94" style="fill:#5D8EFF"></rect><rect x="343.34" y="187.13" width="6.2" height="36.94" style="fill:#5D8EFF"></rect><rect x="355.3" y="175.09" width="6.2" height="49.27" style="fill:#5D8EFF"></rect><rect x="367.27" y="170.29" width="6.2" height="53.78" style="fill:#5D8EFF"></rect><rect x="379.23" y="188.27" width="6.2" height="35.8" style="fill:#5D8EFF"></rect><rect x="391.19" y="195.29" width="6.2" height="28.78" style="fill:#5D8EFF"></rect><rect x="403.15" y="173.87" width="6.2" height="50.2" style="fill:#5D8EFF"></rect><rect x="415.11" y="182.92" width="6.2" height="41.15" style="fill:#5D8EFF"></rect><rect x="427.08" y="175.69" width="6.2" height="48.38" style="fill:#5D8EFF"></rect><rect x="439.04" y="191.11" width="6.2" height="32.96" style="fill:#5D8EFF"></rect><rect x="451" y="184.84" width="6.2" height="39.23" style="fill:#5D8EFF"></rect><path d="M453.36,180.82l-.38,0-1.08-.17a17.34,17.34,0,0,0-1.77-.23l-1.13-.12-1.29-.05a33.43,33.43,0,0,0-6.64.36,36.71,36.71,0,0,0-8.47,2.3,35,35,0,0,0-9.15,5.41,48.18,48.18,0,0,0-8.18,9.07c-2.6,3.44-5.25,7.23-8.93,10.29a22.64,22.64,0,0,1-6.21,3.74,14.82,14.82,0,0,1-7.39.91,17.31,17.31,0,0,1-7-2.64,29.79,29.79,0,0,1-5.53-4.67c-3.28-3.47-5.66-7.4-8.16-10.92a40.16,40.16,0,0,0-8.15-9.07,21.46,21.46,0,0,0-4.78-2.72,22.49,22.49,0,0,0-4.92-1.32,23.65,23.65,0,0,0-14.89,2.77,23,23,0,0,0-3.42,2.45l-.81.73c-.18.17-.28.25-.29.24s.08-.1.25-.28l.78-.77a21.62,21.62,0,0,1,3.38-2.55,23.62,23.62,0,0,1,15-3,22.66,22.66,0,0,1,5,1.32,21.15,21.15,0,0,1,4.9,2.75,40.2,40.2,0,0,1,8.28,9.13c2.53,3.53,4.91,7.44,8.14,10.85A29.41,29.41,0,0,0,386,209.2a17,17,0,0,0,6.76,2.57,14.46,14.46,0,0,0,7.15-.88,21.79,21.79,0,0,0,6.06-3.66c3.62-3,6.26-6.73,8.88-10.18,1.3-1.73,2.6-3.41,4-5,.68-.76,1.37-1.52,2.11-2.2l1.08-1c.37-.33.76-.63,1.13-.94a35.07,35.07,0,0,1,9.28-5.41,36.38,36.38,0,0,1,8.57-2.25,34,34,0,0,1,6.69-.28l1.3.08,1.13.15a15.81,15.81,0,0,1,1.77.28l1.08.22Z" style="fill:#263238"></path><path d="M324.56,228c-.14,0-.26-15.95-.26-35.62s.12-35.63.26-35.63.26,15.95.26,35.63S324.7,228,324.56,228Z" style="fill:#263238"></path><path d="M459.72,228c0,.14-29.39.26-65.63.26s-65.64-.12-65.64-.26,29.38-.26,65.64-.26S459.72,227.83,459.72,228Z" style="fill:#263238"></path><path d="M340.22,232.37a40.82,40.82,0,0,1-9.2,0,40.82,40.82,0,0,1,9.2,0Z" style="fill:#263238"></path><path d="M355.47,232.6a58.2,58.2,0,0,1-11,0,58.2,58.2,0,0,1,11,0Z" style="fill:#263238"></path><path d="M368.48,232.6a58.2,58.2,0,0,1-11,0,58.2,58.2,0,0,1,11,0Z" style="fill:#263238"></path><path d="M381.49,232.6a58.2,58.2,0,0,1-11,0,58.2,58.2,0,0,1,11,0Z" style="fill:#263238"></path><path d="M394.5,232.6a58.2,58.2,0,0,1-11,0,58.2,58.2,0,0,1,11,0Z" style="fill:#263238"></path><path d="M407.51,232.6a58.2,58.2,0,0,1-11,0,58.2,58.2,0,0,1,11,0Z" style="fill:#263238"></path><path d="M420.52,232.6a58.2,58.2,0,0,1-11,0,58.2,58.2,0,0,1,11,0Z" style="fill:#263238"></path><path d="M433.53,232.6a58.3,58.3,0,0,1-11,0,58.3,58.3,0,0,1,11,0Z" style="fill:#263238"></path><path d="M446.53,232.6a58.2,58.2,0,0,1-11,0,58.2,58.2,0,0,1,11,0Z" style="fill:#263238"></path><path d="M459.54,232.6a58.2,58.2,0,0,1-11,0,58.2,58.2,0,0,1,11,0Z" style="fill:#263238"></path><path d="M373.73,194.7c0-.06.53,0,.74.73a1.32,1.32,0,0,1-.24,1.2,1.35,1.35,0,0,1-2.29-1,1.34,1.34,0,0,1,.74-1c.67-.31,1.09,0,1,.08s-.4-.07-.85.24a1,1,0,0,0-.44.71.83.83,0,0,0,.53.77.81.81,0,0,0,.92-.12,1,1,0,0,0,.24-.8C374.05,195,373.68,194.77,373.73,194.7Z" style="fill:#263238"></path><path d="M433.61,181.2s.12-.07.35,0a1.39,1.39,0,0,1,.82.53,1.43,1.43,0,0,1,.22,1.45,1.66,1.66,0,0,1-1.52,1,1.55,1.55,0,0,1-1.42-1.12,1.48,1.48,0,0,1,.3-1.44c.61-.62,1.19-.52,1.17-.47s-.48.16-.89.7a1.14,1.14,0,0,0-.12,1.06,1.09,1.09,0,0,0,1,.75,1.23,1.23,0,0,0,1.07-.66,1.06,1.06,0,0,0-.09-1C434.11,181.31,433.59,181.28,433.61,181.2Z" style="fill:#263238"></path><ellipse cx="434.58" cy="154.33" rx="0.26" ry="0.75" style="fill:#263238"></ellipse><path d="M434.58,161.59c-.14,0-.26-.73-.26-1.63s.12-1.62.26-1.62.26.73.26,1.62S434.73,161.59,434.58,161.59Z" style="fill:#263238"></path><path d="M434.58,168.1c-.14,0-.26-.73-.26-1.63s.12-1.62.26-1.62.26.72.26,1.62S434.73,168.1,434.58,168.1Z" style="fill:#263238"></path><path d="M434.58,174.61c-.14,0-.26-.73-.26-1.63s.12-1.63.26-1.63.26.73.26,1.63S434.73,174.61,434.58,174.61Z" style="fill:#263238"></path><path d="M434.58,179.36c-.14,0-.26-.33-.26-.75s.12-.75.26-.75.26.34.26.75S434.73,179.36,434.58,179.36Z" style="fill:#263238"></path><path d="M478.66,144.76c0,.14-10.16.26-22.7.26s-22.7-.12-22.7-.26,10.17-.26,22.7-.26S478.66,144.62,478.66,144.76Z" style="fill:#263238"></path><path d="M463.16,139.62c0,.14-6.54.26-14.61.26s-14.6-.12-14.6-.26,6.54-.26,14.6-.26S463.16,139.48,463.16,139.62Z" style="fill:#263238"></path><path d="M165.59,109.13c.14,0,.26.34.26.75s-.12.75-.26.75-.26-.34-.26-.75S165.44,109.13,165.59,109.13Z" style="fill:#263238"></path><path d="M165.59,103.34c.14,0,.26.65.26,1.45s-.12,1.44-.26,1.44-.26-.64-.26-1.44S165.44,103.34,165.59,103.34Z" style="fill:#263238"></path><path d="M165.59,97.55c.14,0,.26.64.26,1.44s-.12,1.45-.26,1.45-.26-.65-.26-1.45S165.44,97.55,165.59,97.55Z" style="fill:#263238"></path><path d="M165.59,91.76c.14,0,.26.65.26,1.45s-.12,1.44-.26,1.44-.26-.64-.26-1.44S165.44,91.76,165.59,91.76Z" style="fill:#263238"></path><ellipse cx="165.59" cy="87.42" rx="0.26" ry="1.45" style="fill:#263238"></ellipse><path d="M165.59,80.19c.14,0,.26.65.26,1.45s-.12,1.44-.26,1.44-.26-.65-.26-1.44S165.44,80.19,165.59,80.19Z" style="fill:#263238"></path><path d="M165.59,75.79c.14,0,.26.33.26.75s-.12.75-.26.75-.26-.34-.26-.75S165.44,75.79,165.59,75.79Z" style="fill:#263238"></path><path d="M167.09,74.38c0,.14-.34.26-.75.26s-.75-.12-.75-.26.33-.26.75-.26S167.09,74.24,167.09,74.38Z" style="fill:#263238"></path><path d="M173.25,74.38c0,.14-.69.26-1.54.26s-1.54-.12-1.54-.26.69-.26,1.54-.26S173.25,74.24,173.25,74.38Z" style="fill:#263238"></path><path d="M179.41,74.38c0,.14-.69.26-1.54.26s-1.54-.12-1.54-.26.69-.26,1.54-.26S179.41,74.24,179.41,74.38Z" style="fill:#263238"></path><path d="M185.57,74.38c0,.14-.69.26-1.54.26s-1.54-.12-1.54-.26.69-.26,1.54-.26S185.57,74.24,185.57,74.38Z" style="fill:#263238"></path><path d="M191.72,74.38c0,.14-.69.26-1.54.26s-1.53-.12-1.53-.26.68-.26,1.53-.26S191.72,74.24,191.72,74.38Z" style="fill:#263238"></path><path d="M197.87,74.38c0,.14-.69.26-1.54.26s-1.53-.12-1.53-.26.68-.26,1.53-.26S197.87,74.24,197.87,74.38Z" style="fill:#263238"></path><path d="M204,74.38c0,.14-.69.26-1.53.26s-1.54-.12-1.54-.26.69-.26,1.54-.26S204,74.24,204,74.38Z" style="fill:#263238"></path><path d="M210.18,74.38c0,.14-.69.26-1.54.26s-1.54-.12-1.54-.26.69-.26,1.54-.26S210.18,74.24,210.18,74.38Z" style="fill:#263238"></path><path d="M216.33,74.38c0,.14-.69.26-1.54.26s-1.54-.12-1.54-.26.69-.26,1.54-.26S216.33,74.24,216.33,74.38Z" style="fill:#263238"></path><path d="M222.48,74.38c0,.14-.68.26-1.53.26s-1.54-.12-1.54-.26.69-.26,1.54-.26S222.48,74.24,222.48,74.38Z" style="fill:#263238"></path><path d="M228.64,74.38c0,.14-.69.26-1.54.26s-1.54-.12-1.54-.26.69-.26,1.54-.26S228.64,74.24,228.64,74.38Z" style="fill:#263238"></path><path d="M233.25,74.38c0,.14-.33.26-.75.26s-.75-.12-.75-.26.34-.26.75-.26S233.25,74.24,233.25,74.38Z" style="fill:#263238"></path></g><g id="freepik--speech-bubble--inject-83"><path d="M307.17,130.32H268.69a3.87,3.87,0,0,0-3.88,3.88v22.57a3.88,3.88,0,0,0,3.88,3.88h6.16v9.25l8.29-9.25h24a3.88,3.88,0,0,0,3.88-3.88V134.2A3.87,3.87,0,0,0,307.17,130.32Z" style="fill:#263238"></path><path d="M283.32,146a1.61,1.61,0,1,1-1.6-1.61A1.6,1.6,0,0,1,283.32,146Z" style="fill:#fafafa"></path><path d="M289.63,146a1.61,1.61,0,1,1-1.6-1.61A1.61,1.61,0,0,1,289.63,146Z" style="fill:#fafafa"></path><path d="M295.75,146a1.61,1.61,0,1,1-1.61-1.61A1.61,1.61,0,0,1,295.75,146Z" style="fill:#fafafa"></path></g><g id="freepik--Character--inject-83"><path d="M222.07,158.42c-1.89-.47-1.58-5.67-1.78-7.26a5.2,5.2,0,0,1,.19-2.88,3.93,3.93,0,0,1,3.09-1.92c1.25-.19,2.53-.07,3.78-.25,2.52-.36,4.77-1.92,7.3-2.15a7.18,7.18,0,0,1,5.66,2.07,14.08,14.08,0,0,0,2.61,2.62,14.43,14.43,0,0,0,3.14.94,7.17,7.17,0,0,1,5,5.89,20,20,0,0,1-.35,4.81,7.35,7.35,0,0,0,.68,4.7c.87,1.43,2.52,2.26,3.33,3.73a4,4,0,0,1-4.08,5.91c-.47-.07-1-.2-1.38.1a1.92,1.92,0,0,0-.43,1.12,3,3,0,0,1-6-1.09" style="fill:#263238"></path><path d="M244,191.72l-16.56-1.32c-.1-1.93,0-9.41,0-9.41s-6.89-1.07-7-8,1.11-22.71,1.11-22.71h0a24,24,0,0,1,24.06,3l1,.78Z" style="fill:#ffbe9d"></path><path d="M223.17,161.52a1,1,0,1,0-1.41-.07A1,1,0,0,0,223.17,161.52Z" style="fill:#263238"></path><path d="M221.5,160.59c.11.12.78-.4,1.73-.41s1.64.49,1.74.37-.05-.27-.35-.5a2.28,2.28,0,0,0-1.39-.44,2.36,2.36,0,0,0-1.39.47C221.55,160.32,221.45,160.54,221.5,160.59Z" style="fill:#263238"></path><path d="M232.27,160.93a1,1,0,1,0,1.37.32A1,1,0,0,0,232.27,160.93Z" style="fill:#263238"></path><path d="M231.8,161.42c.11.12.79-.4,1.74-.4s1.63.48,1.74.36-.06-.27-.36-.5a2.32,2.32,0,0,0-1.39-.43,2.22,2.22,0,0,0-1.38.47C231.85,161.15,231.75,161.37,231.8,161.42Z" style="fill:#263238"></path><path d="M228,169.25a4.72,4.72,0,0,0-1.53-.32c-.25,0-.45-.09-.47-.22a1.46,1.46,0,0,1,.18-.71c.25-.63.49-1.26.75-1.93a26.25,26.25,0,0,0,1.63-5.07,25.87,25.87,0,0,0-2.13,4.88c-.25.67-.48,1.31-.71,1.94a1.58,1.58,0,0,0-.14,1,.65.65,0,0,0,.43.4,1.76,1.76,0,0,0,.42.06A4.85,4.85,0,0,0,228,169.25Z" style="fill:#263238"></path><path d="M231.08,170.3c1-.59-2.72,1.44-4.65,1.35a2.62,2.62,0,0,0,3.09,1C231.58,171.94,231.08,170.3,231.08,170.3Z" style="fill:#fafafa"></path><path d="M227.44,180.89a16.07,16.07,0,0,0,9-2.55s-2.12,4.95-9,4.33Z" style="fill:#eb996e"></path><path d="M245.6,161.21c.14-.08,4.89-1.62,5.5,4.22s-5.48,4.52-5.51,4.35S245.6,161.21,245.6,161.21Z" style="fill:#ffbe9d"></path><path d="M247.17,167.55s.1.06.28.12a1,1,0,0,0,.77-.07,2.52,2.52,0,0,0,.92-2.37,3.38,3.38,0,0,0-.43-1.43,1.18,1.18,0,0,0-.85-.7.51.51,0,0,0-.57.34c-.06.17,0,.29,0,.3s-.14-.09-.12-.33a.74.74,0,0,1,.19-.39.78.78,0,0,1,.55-.21,1.48,1.48,0,0,1,1.16.79,3.56,3.56,0,0,1,.52,1.59,2.65,2.65,0,0,1-1.22,2.68,1.08,1.08,0,0,1-.94-.06C247.19,167.69,247.15,167.56,247.17,167.55Z" style="fill:#eb996e"></path><path d="M221.62,150c1.32,2.44,4.22,3.67,7,3.79a26.88,26.88,0,0,0,8.15-1.44c1.45-.4,3.22-.71,4.28.35a4,4,0,0,1,.91,2.42,26.34,26.34,0,0,1,.08,5.82,6.46,6.46,0,0,0,0,2.32,1.94,1.94,0,0,0,1.56,1.54c1.22.1,2-1.27,2.37-2.42a23.11,23.11,0,0,0,1.35-4.88,7.58,7.58,0,0,0-.89-4.89,10.09,10.09,0,0,0-4.46-3.46,26.4,26.4,0,0,0-11-2.89,14.58,14.58,0,0,0-10.46,4" style="fill:#263238"></path><path d="M219.61,452.72l-.05-9.2,17.22-.21.22,13.45-1.07.08c-4.75.33-24.17,1.3-27.36.38C205,456.19,219.61,452.72,219.61,452.72Z" style="fill:#5D8EFF"></path><path d="M230.75,456.7a6,6,0,0,1,2.16-3.7,5.79,5.79,0,0,1,4-1.3l.06,4.82Z" style="fill:#5D8EFF"></path><path d="M212.48,454.67s-5.11,1.54-4.46,2.38,20.31.58,29-.29l0-.38-22.94.49S213.48,454.7,212.48,454.67Z" style="fill:#5D8EFF"></path><path d="M237.24,456.36l-.3,0-.85.06-3.13.18c-2.64.13-6.29.26-10.33.31s-7.69,0-10.34,0l-3.13-.09-.85,0-.3,0,.3,0h.85l3.13,0c2.65,0,6.3,0,10.34,0s7.68-.16,10.33-.25l3.13-.11.85,0Z" style="fill:#263238"></path><path d="M214,457.13a6.88,6.88,0,0,0-.6-1.48,7.05,7.05,0,0,0-1.09-1.19,2.26,2.26,0,0,1,1.26,1.08A2.29,2.29,0,0,1,214,457.13Z" style="fill:#263238"></path><path d="M219.09,454.49c-.05,0-.3-.26-.55-.65s-.43-.74-.38-.77.3.26.55.65S219.14,454.46,219.09,454.49Z" style="fill:#263238"></path><path d="M220.47,453.74s-.31-.14-.61-.4-.51-.51-.47-.56.31.14.61.4S220.51,453.69,220.47,453.74Z" style="fill:#263238"></path><path d="M221.34,452.1a2.06,2.06,0,0,1-.9.12,1.86,1.86,0,0,1-.9-.08c0-.06.4-.11.89-.12A2,2,0,0,1,221.34,452.1Z" style="fill:#263238"></path><path d="M221.62,451a1.75,1.75,0,0,1-1,.3,1.72,1.72,0,0,1-1-.12,6.08,6.08,0,0,1,1-.09A5.51,5.51,0,0,1,221.62,451Z" style="fill:#263238"></path><path d="M218.49,453a3.27,3.27,0,0,1-1.11,0,6,6,0,0,1-1.18-.24,3.43,3.43,0,0,1-.68-.27.61.61,0,0,1-.28-.34.45.45,0,0,1,.16-.45,2,2,0,0,1,2.52.57,1.92,1.92,0,0,1,.37.73c.05.19.05.3,0,.3a3.1,3.1,0,0,0-.51-.94,2,2,0,0,0-1-.6,1.71,1.71,0,0,0-1.31.1c-.18.14-.11.34.09.46a3.18,3.18,0,0,0,.63.25,8.31,8.31,0,0,0,1.14.29C218.06,453,218.49,453,218.49,453Z" style="fill:#263238"></path><path d="M218.2,453.05s-.18-.26-.14-.76a1.93,1.93,0,0,1,.29-.82,1.12,1.12,0,0,1,.92-.57.45.45,0,0,1,.35.51,1.2,1.2,0,0,1-.19.49,3.25,3.25,0,0,1-.51.68c-.34.34-.62.48-.63.45s.22-.2.52-.55a4.31,4.31,0,0,0,.46-.67c.15-.24.24-.66,0-.7s-.56.25-.73.47a1.86,1.86,0,0,0-.3.73A4.27,4.27,0,0,0,218.2,453.05Z" style="fill:#263238"></path><path d="M236.83,451.66s-.5,0-1.28.06a5.48,5.48,0,0,0-2.76,1.18,5.54,5.54,0,0,0-1.7,2.47c-.25.74-.27,1.24-.31,1.23s0-.12,0-.34a4.92,4.92,0,0,1,.18-.93,5.24,5.24,0,0,1,4.59-3.76,4.79,4.79,0,0,1,1,0C236.71,451.61,236.83,451.64,236.83,451.66Z" style="fill:#263238"></path><path d="M235,444.51a62.77,62.77,0,0,1,.18,7.08,28.84,28.84,0,0,1-.2-3.54A31.24,31.24,0,0,1,235,444.51Z" style="fill:#263238"></path><path d="M228.56,455.05a9.5,9.5,0,0,1-2.51.28,9.14,9.14,0,0,1-2.52-.17c0-.06,1.13,0,2.52,0S228.56,455,228.56,455.05Z" style="fill:#263238"></path><path d="M231.94,455c0,.05-.09.24-.2.5s-.17.49-.23.49-.09-.27,0-.57S231.9,455,231.94,455Z" style="fill:#263238"></path><path d="M233.19,453.4s-.07.23-.24.41-.35.3-.4.26.07-.22.25-.41S233.15,453.36,233.19,453.4Z" style="fill:#263238"></path><path d="M235,452.66c0,.06-.24.06-.49.15s-.43.23-.48.19.1-.28.41-.39S235,452.6,235,452.66Z" style="fill:#263238"></path><path d="M236.29,452.3c0,.05-.07.14-.21.2s-.28.06-.3,0,.08-.15.22-.2S236.27,452.25,236.29,452.3Z" style="fill:#263238"></path><path d="M307.63,448l-2.81-8.75-16.43,5.14,4,12.86,1-.26c4.62-1.16,23.38-6.26,26.13-8.13C322.58,446.73,307.63,448,307.63,448Z" style="fill:#5D8EFF"></path><path d="M298.27,455.21a6,6,0,0,0-3.19-2.85,5.85,5.85,0,0,0-4.22,0l1.44,4.6Z" style="fill:#5D8EFF"></path><path d="M315,447.61s5.33-.13,5,.87-19.13,6.87-27.64,8.73l-.09-.38,22-6.65S314.06,448,315,447.61Z" style="fill:#5D8EFF"></path><path d="M292,456.9a1.28,1.28,0,0,0,.29,0l.83-.21,3-.8c2.55-.7,6.06-1.71,9.92-2.91s7.32-2.37,9.82-3.25l2.95-1.05.79-.31.28-.11a1.43,1.43,0,0,0-.29.07l-.81.27-3,1c-2.51.84-6,2-9.83,3.19s-7.36,2.23-9.9,3l-3,.87-.82.24Z" style="fill:#263238"></path><path d="M314.29,450.43a7.12,7.12,0,0,1,.11-1.6,6.87,6.87,0,0,1,.67-1.46,2.77,2.77,0,0,0-.78,3.06Z" style="fill:#263238"></path><path d="M308.67,449.49c.06,0,.2-.34.32-.79s.18-.84.12-.85-.2.34-.32.79A2,2,0,0,0,308.67,449.49Z" style="fill:#263238"></path><path d="M307.12,449.2c.05,0,.26-.22.46-.57s.33-.64.28-.67-.26.22-.46.57S307.07,449.17,307.12,449.2Z" style="fill:#263238"></path><path d="M305.79,447.91a1.88,1.88,0,0,0,.9-.16,2,2,0,0,0,.83-.36,2.17,2.17,0,0,0-.89.16A2.33,2.33,0,0,0,305.79,447.91Z" style="fill:#263238"></path><path d="M305.16,446.91a1.85,1.85,0,0,0,1,0,1.76,1.76,0,0,0,.94-.44,5,5,0,0,0-1,.23A5.62,5.62,0,0,0,305.16,446.91Z" style="fill:#263238"></path><path d="M308.78,447.88a3.1,3.1,0,0,0,1.06-.34,5.8,5.8,0,0,0,1-.6,2.9,2.9,0,0,0,.56-.46.57.57,0,0,0,.16-.41.41.41,0,0,0-.29-.37,2,2,0,0,0-2.34,2.12.62.62,0,0,0,.06.3,3,3,0,0,1,.2-1.05,2,2,0,0,1,.72-.87,1.68,1.68,0,0,1,1.28-.31c.21.07.21.29,0,.46a3.1,3.1,0,0,1-.51.44,7.43,7.43,0,0,1-1,.62C309.17,447.72,308.77,447.85,308.78,447.88Z" style="fill:#263238"></path><path d="M309.07,447.85a1.07,1.07,0,0,0-.11-.77,1.73,1.73,0,0,0-.53-.69,1.12,1.12,0,0,0-1-.26.44.44,0,0,0-.18.59,1.28,1.28,0,0,0,.33.42,3.37,3.37,0,0,0,.7.48,1.65,1.65,0,0,0,.74.24s-.27-.13-.67-.37a3.3,3.3,0,0,1-.64-.5c-.21-.17-.44-.54-.19-.67a1,1,0,0,1,.84.23,1.73,1.73,0,0,1,.51.59A3.83,3.83,0,0,1,309.07,447.85Z" style="fill:#263238"></path><path d="M290.93,452.3s.46-.19,1.23-.34a5.43,5.43,0,0,1,5.38,2.09c.47.63.64,1.09.68,1.08a1,1,0,0,0-.11-.34,5.16,5.16,0,0,0-.45-.83,5.41,5.41,0,0,0-2.43-1.93,5.32,5.32,0,0,0-3.1-.21,4.9,4.9,0,0,0-.9.3A1.25,1.25,0,0,0,290.93,452.3Z" style="fill:#263238"></path><path d="M290.5,444.93a29.19,29.19,0,0,0,.91,3.42,31.87,31.87,0,0,0,1.11,3.36,28.09,28.09,0,0,0-.91-3.42A30.91,30.91,0,0,0,290.5,444.93Z" style="fill:#263238"></path><path d="M299.84,453a9.22,9.22,0,0,0,2.47-.51,9.88,9.88,0,0,0,2.35-.94c0-.06-1.08.34-2.41.74S299.83,452.9,299.84,453Z" style="fill:#263238"></path><path d="M296.62,454s.15.2.34.41.32.41.37.39,0-.29-.21-.53S296.64,453.91,296.62,454Z" style="fill:#263238"></path><path d="M294.93,452.83c0,.05.13.19.36.31s.42.18.45.13-.13-.19-.36-.31S295,452.78,294.93,452.83Z" style="fill:#263238"></path><path d="M293,452.69c0,.05.24,0,.51,0s.48.08.51,0-.17-.23-.5-.24S292.94,452.64,293,452.69Z" style="fill:#263238"></path><path d="M291.64,452.75c0,.05.11.11.27.12s.28,0,.28-.09-.12-.11-.27-.12S291.64,452.69,291.64,452.75Z" style="fill:#263238"></path><polyline points="207.89 270.1 215.93 448.75 242.75 449.32 238.29 299.75 286.9 451.1 308.82 445.1 259.91 270.1" style="fill:#263238"></polyline><polygon points="285.75 450.08 287 452.49 310.23 445.72 308.82 441.82 285.75 450.08" style="fill:#455a64"></polygon><path d="M306.14,440.93c.14-.05.34.24.46.64s.11.75,0,.79-.35-.24-.47-.64S306,441,306.14,440.93Z" style="fill:#455a64"></path><path d="M304.4,435.12c.14,0,.44.58.68,1.38s.33,1.48.19,1.53-.44-.58-.69-1.38S304.26,435.17,304.4,435.12Z" style="fill:#455a64"></path><path d="M302.66,429.32c.14,0,.44.58.68,1.38s.33,1.48.19,1.52-.44-.57-.68-1.37S302.52,429.37,302.66,429.32Z" style="fill:#455a64"></path><path d="M300.92,423.52c.14,0,.44.58.68,1.38s.33,1.48.19,1.52-.44-.57-.68-1.37S300.78,423.56,300.92,423.52Z" style="fill:#455a64"></path><path d="M299.18,417.72c.14,0,.44.58.68,1.38s.33,1.48.19,1.52-.44-.57-.68-1.37S299,417.76,299.18,417.72Z" style="fill:#455a64"></path><path d="M297.44,411.92c.14,0,.45.58.69,1.38s.32,1.48.18,1.52-.44-.57-.68-1.37S297.3,412,297.44,411.92Z" style="fill:#455a64"></path><path d="M295.7,406.12c.14,0,.45.58.69,1.38s.32,1.48.18,1.52-.44-.57-.68-1.37S295.56,406.16,295.7,406.12Z" style="fill:#455a64"></path><path d="M294,400.32c.14,0,.45.57.69,1.37s.32,1.49.18,1.53-.44-.57-.68-1.38S293.82,400.36,294,400.32Z" style="fill:#455a64"></path><path d="M292.22,394.52c.14,0,.45.57.69,1.37s.32,1.49.18,1.53-.44-.58-.68-1.38S292.08,394.56,292.22,394.52Z" style="fill:#455a64"></path><path d="M290.48,388.72c.14,0,.45.57.69,1.37s.32,1.49.18,1.53-.44-.58-.68-1.38S290.34,388.76,290.48,388.72Z" style="fill:#455a64"></path><path d="M288.74,382.92c.14,0,.45.57.69,1.37s.32,1.49.18,1.53-.44-.58-.68-1.38S288.61,383,288.74,382.92Z" style="fill:#455a64"></path><path d="M287,377.12c.14-.05.45.57.69,1.37s.32,1.49.18,1.53-.44-.58-.68-1.38S286.87,377.16,287,377.12Z" style="fill:#455a64"></path><path d="M285.26,371.32c.14-.05.45.57.69,1.37s.32,1.48.18,1.53-.44-.58-.68-1.38S285.13,371.36,285.26,371.32Z" style="fill:#455a64"></path><path d="M283.52,365.51c.14,0,.45.58.69,1.38s.32,1.48.18,1.52-.44-.57-.68-1.37S283.39,365.56,283.52,365.51Z" style="fill:#455a64"></path><path d="M281.78,359.71c.14,0,.45.58.69,1.38s.32,1.48.18,1.52-.44-.57-.68-1.37S281.65,359.75,281.78,359.71Z" style="fill:#455a64"></path><path d="M280.05,353.91c.13,0,.44.58.68,1.38s.32,1.48.18,1.52-.44-.57-.68-1.37S279.91,354,280.05,353.91Z" style="fill:#455a64"></path><path d="M278.31,348.11c.13,0,.44.58.68,1.38s.32,1.48.19,1.52-.45-.57-.69-1.37S278.17,348.15,278.31,348.11Z" style="fill:#455a64"></path><path d="M276.57,342.31c.13,0,.44.58.68,1.38s.32,1.48.19,1.52-.45-.57-.69-1.37S276.43,342.35,276.57,342.31Z" style="fill:#455a64"></path><path d="M274.83,336.51c.13,0,.44.57.68,1.38s.32,1.48.19,1.52-.45-.57-.69-1.38S274.69,336.55,274.83,336.51Z" style="fill:#455a64"></path><path d="M273.09,330.71c.13,0,.44.57.68,1.37s.32,1.49.19,1.53-.45-.58-.69-1.38S273,330.75,273.09,330.71Z" style="fill:#455a64"></path><path d="M271.35,324.91c.13,0,.44.57.68,1.37s.32,1.49.19,1.53-.45-.58-.69-1.38S271.21,325,271.35,324.91Z" style="fill:#455a64"></path><path d="M269.61,319.11c.14,0,.44.57.68,1.37s.33,1.49.19,1.53-.45-.58-.69-1.38S269.47,319.15,269.61,319.11Z" style="fill:#455a64"></path><path d="M267.87,313.31c.14-.05.44.57.68,1.37s.33,1.49.19,1.53-.45-.58-.69-1.38S267.73,313.35,267.87,313.31Z" style="fill:#455a64"></path><path d="M266.13,307.51c.14-.05.44.57.68,1.37s.33,1.48.19,1.53-.45-.58-.69-1.38S266,307.55,266.13,307.51Z" style="fill:#455a64"></path><path d="M264.39,301.7c.14,0,.44.58.68,1.38s.33,1.48.19,1.52-.45-.57-.69-1.37S264.25,301.75,264.39,301.7Z" style="fill:#455a64"></path><path d="M262.65,295.9c.14,0,.44.58.68,1.38s.33,1.48.19,1.52-.45-.57-.69-1.37S262.51,295.94,262.65,295.9Z" style="fill:#455a64"></path><path d="M260.91,290.1c.14,0,.44.58.68,1.38s.33,1.48.19,1.52-.44-.57-.68-1.37S260.77,290.14,260.91,290.1Z" style="fill:#455a64"></path><path d="M259.17,284.3c.14,0,.44.58.68,1.38s.33,1.48.19,1.52-.44-.57-.68-1.37S259,284.34,259.17,284.3Z" style="fill:#455a64"></path><path d="M257.43,278.5c.14,0,.44.58.68,1.38s.33,1.48.19,1.52-.44-.57-.68-1.37S257.29,278.54,257.43,278.5Z" style="fill:#455a64"></path><path d="M256.13,274.16c.14,0,.35.25.46.65s.11.75,0,.79-.35-.25-.46-.64S256,274.2,256.13,274.16Z" style="fill:#455a64"></path><path d="M238.12,447.86c.15,0,.28.32.3.73s-.07.75-.22.76-.27-.32-.3-.73S238,447.86,238.12,447.86Z" style="fill:#455a64"></path><path d="M237.88,441.9c.14,0,.28.66.31,1.48s-.06,1.49-.2,1.5-.28-.66-.32-1.48S237.73,441.91,237.88,441.9Z" style="fill:#455a64"></path><path d="M237.69,436c.15,0,.28.66.31,1.48s-.08,1.49-.22,1.5-.28-.66-.3-1.48S237.55,436,237.69,436Z" style="fill:#455a64"></path><path d="M237.54,430c.15,0,.28.66.3,1.48s-.08,1.49-.22,1.49-.28-.66-.3-1.48S237.4,430,237.54,430Z" style="fill:#455a64"></path><path d="M237.4,424c.15,0,.28.66.3,1.48s-.08,1.49-.23,1.5-.27-.66-.29-1.49S237.26,424,237.4,424Z" style="fill:#455a64"></path><path d="M237.25,418.08c.14,0,.28.66.3,1.48s-.08,1.5-.22,1.5-.28-.66-.3-1.48S237.1,418.08,237.25,418.08Z" style="fill:#455a64"></path><path d="M237.05,412.12c.14,0,.28.66.31,1.48s-.06,1.5-.2,1.5-.29-.66-.32-1.48S236.91,412.13,237.05,412.12Z" style="fill:#455a64"></path><path d="M236.8,406.17c.14,0,.29.66.32,1.48s-.05,1.49-.2,1.5-.28-.66-.32-1.48S236.66,406.18,236.8,406.17Z" style="fill:#455a64"></path><path d="M236.57,400.22c.14,0,.28.66.31,1.48s-.06,1.49-.2,1.5-.28-.66-.32-1.48S236.42,400.22,236.57,400.22Z" style="fill:#455a64"></path><path d="M236.36,394.27c.14,0,.28.65.31,1.48s-.07,1.49-.21,1.49-.28-.65-.31-1.48S236.22,394.27,236.36,394.27Z" style="fill:#455a64"></path><path d="M236.18,388.31c.14,0,.28.66.3,1.48s-.07,1.49-.21,1.49-.28-.65-.31-1.48S236,388.31,236.18,388.31Z" style="fill:#455a64"></path><path d="M236,382.35c.15,0,.28.66.3,1.48s-.08,1.5-.22,1.5-.28-.66-.3-1.48S235.88,382.36,236,382.35Z" style="fill:#455a64"></path><path d="M235.89,376.4c.15,0,.28.66.29,1.48s-.08,1.49-.23,1.5-.27-.67-.29-1.49S235.75,376.4,235.89,376.4Z" style="fill:#455a64"></path><path d="M235.79,370.44c.15,0,.27.66.29,1.49s-.1,1.49-.24,1.49-.27-.66-.28-1.49S235.65,370.44,235.79,370.44Z" style="fill:#455a64"></path><path d="M235.72,364.49c.15,0,.27.66.28,1.48s-.1,1.49-.25,1.49-.26-.66-.27-1.48S235.58,364.49,235.72,364.49Z" style="fill:#455a64"></path><path d="M235.68,358.53c.14,0,.26.66.27,1.49s-.11,1.49-.25,1.49-.27-.67-.27-1.49S235.54,358.53,235.68,358.53Z" style="fill:#455a64"></path><path d="M235.67,352.57c.14,0,.26.67.26,1.49s-.12,1.49-.26,1.49-.26-.67-.26-1.49S235.52,352.57,235.67,352.57Z" style="fill:#455a64"></path><path d="M235.68,346.62c.15,0,.26.66.26,1.49s-.13,1.48-.27,1.48-.26-.66-.25-1.49S235.54,346.62,235.68,346.62Z" style="fill:#455a64"></path><path d="M235.73,340.66c.14,0,.25.67.25,1.49s-.13,1.49-.28,1.49-.25-.67-.24-1.49S235.59,340.66,235.73,340.66Z" style="fill:#455a64"></path><path d="M235.81,334.7c.14,0,.25.67.24,1.5s-.14,1.48-.28,1.48-.26-.67-.24-1.49S235.66,334.7,235.81,334.7Z" style="fill:#455a64"></path><path d="M235.91,328.75c.15,0,.25.67.24,1.49s-.15,1.49-.29,1.49-.25-.67-.24-1.5S235.77,328.75,235.91,328.75Z" style="fill:#455a64"></path><path d="M236.05,322.79c.14,0,.24.67.22,1.5s-.15,1.48-.29,1.48-.25-.67-.23-1.5S235.9,322.79,236.05,322.79Z" style="fill:#455a64"></path><path d="M236.26,316.83c.14,0,.23.68.2,1.5s-.18,1.48-.32,1.48-.23-.68-.2-1.5S236.11,316.82,236.26,316.83Z" style="fill:#455a64"></path><path d="M236.6,310.88c.15,0,.22.68.17,1.5s-.22,1.48-.36,1.47-.22-.68-.16-1.5S236.46,310.87,236.6,310.88Z" style="fill:#455a64"></path><path d="M237.15,305c.14,0,.19.69.11,1.51s-.27,1.46-.41,1.45-.19-.69-.11-1.51S237,304.93,237.15,305Z" style="fill:#455a64"></path><path d="M237.73,300.52c.14,0,.21.37.15.78s-.22.73-.37.71-.21-.37-.15-.78S237.58,300.5,237.73,300.52Z" style="fill:#455a64"></path><polygon points="215.23 449.62 243.59 450.08 243.37 445.36 215.23 445.51 215.23 449.62" style="fill:#455a64"></polygon><path d="M233.83,272.37a5.21,5.21,0,0,1,.17,1.09c.07.7.16,1.73.26,3,.21,2.53.45,6,.69,9.88.11,1.92.22,3.75.32,5.44a16.31,16.31,0,0,0,.52,4.34,3.62,3.62,0,0,0,1.81,2.15,4.53,4.53,0,0,0,1,.3s-.1,0-.29.05a2.32,2.32,0,0,1-.82-.16,3.78,3.78,0,0,1-2.08-2.21,15.74,15.74,0,0,1-.65-4.44c-.11-1.69-.23-3.52-.36-5.44-.24-3.86-.42-7.36-.53-9.89-.06-1.26-.09-2.29-.11-3A4.11,4.11,0,0,1,233.83,272.37Z" style="fill:#455a64"></path><path d="M236.58,274.74c0,.07-.22.24-.25.67a.83.83,0,0,0,.21.61.64.64,0,0,0,.7.09.61.61,0,0,0,.43-.55.8.8,0,0,0-.27-.59c-.31-.28-.63-.22-.65-.3s.34-.3.86,0a1,1,0,0,1-.18,1.91,1.06,1.06,0,0,1-1.24-.25,1.11,1.11,0,0,1-.22-1C236.13,274.75,236.58,274.67,236.58,274.74Z" style="fill:#455a64"></path><path d="M261.82,279a5.24,5.24,0,0,1-2.23.85,9.46,9.46,0,0,1-10-4.47,5.18,5.18,0,0,1-.85-2.23c.09,0,.36.84,1.16,2a10.17,10.17,0,0,0,4.19,3.55,10,10,0,0,0,5.44.75C261,279.27,261.79,278.89,261.82,279Z" style="fill:#455a64"></path><path d="M217.22,272.37a3.85,3.85,0,0,1-.1,1.93,7.6,7.6,0,0,1-6.7,5.87,3.7,3.7,0,0,1-1.93-.16c0-.08.74,0,1.88-.2a8,8,0,0,0,6.39-5.6C217.11,273.1,217.13,272.37,217.22,272.37Z" style="fill:#455a64"></path><path d="M293.17,253.27a16.75,16.75,0,0,0-.08-22.06l-26.75-30.33-7.15,20C259.67,221.22,280,243,280,243L262.53,264.8a12.53,12.53,0,0,0-2.07,11.92l4.67,11.43,12.78-5.73-1-1.49h-9.6l-.57-2.31h0Z" style="fill:#ffbe9d"></path><path d="M182.76,149.1s4.19,4.94,8.52-.94c3.41-4.61,4.14-10.32,1.4-12.73l.9-.6s4.56,3,2.5,9.41-6.5,9.78-9.65,9.27-4-3.8-4-3.8l.31-.93" style="fill:#455a64"></path><path d="M210.2,197S183.37,208.08,184,207.35l-.68-32.92H172.8s-7.47,43.42.54,48.53c10.95,7,37.46-7.55,37.46-7.55Z" style="fill:#ffbe9d"></path><polyline points="181.17 161.06 181.12 161.4 179.11 175.75 172.8 174.43 173.61 166.18" style="fill:#ffbe9d"></polyline><path d="M183.14,159.63l-4.37,15.54,3.89.77s.55-1.14,1.82-4.51a10.17,10.17,0,0,0-.23-7.5s3.52-8,2.16-8.32S183.14,159.63,183.14,159.63Z" style="fill:#ffbe9d"></path><path d="M186.54,153.22C186.31,153.89,177,177,177,177l-2.34-1.32,9.4-24.57Z" style="fill:#263238"></path><path d="M173.09,173.21s-1.14-6.8.11-8.91c.45-.76,6.89-9.63,7.35-9.35s3.26,8.15,1.78,8.41a2,2,0,0,1-2.07-1.3s1.93,4.83.57,4.91-2.51-2.91-2.51-2.91,2.86,5.7,1.07,6-4.25-4.39-4.25-4.39Z" style="fill:#ffbe9d"></path><path d="M179,158.11a12.35,12.35,0,0,1,1.43,3.17,9.64,9.64,0,0,0,.48,1.2,1.81,1.81,0,0,0,.67.7c.5.28.9.24.91.32s-.41.25-1.07,0a1.92,1.92,0,0,1-.92-.78,6,6,0,0,1-.56-1.27A11.37,11.37,0,0,1,179,158.11Z" style="fill:#eb996e"></path><path d="M177,160.32c.15,0,1.08,2.6,2.63,5.68.19.39.38.73.65.83s.48,0,.57-.32a3.17,3.17,0,0,0,0-1,7.93,7.93,0,0,0-.08-.9c-.15-1.11-.38-1.78-.31-1.81a3.94,3.94,0,0,1,.67,1.74,8.05,8.05,0,0,1,.15.94,3.15,3.15,0,0,1,0,1.14,1,1,0,0,1-.41.62.93.93,0,0,1-.81.05,2,2,0,0,1-.92-1.08A20.37,20.37,0,0,1,177,160.32Z" style="fill:#eb996e"></path><path d="M175.3,163.62a8.19,8.19,0,0,1,1.08,1.7l1,1.92q.3.56.6,1.14a7.63,7.63,0,0,0,.66,1.13.68.68,0,0,0,.89.2,1,1,0,0,0,.33-.92,16.63,16.63,0,0,0-.64-2,7.76,7.76,0,0,1-.55-2,8.55,8.55,0,0,1,.89,1.81l.39.94a4.64,4.64,0,0,1,.38,1.16,1.46,1.46,0,0,1-.5,1.39,1,1,0,0,1-.85.18,1.44,1.44,0,0,1-.72-.44,5.92,5.92,0,0,1-.73-1.25l-.58-1.15-.94-2A8.31,8.31,0,0,1,175.3,163.62Z" style="fill:#eb996e"></path><path d="M187.05,154.24a5.52,5.52,0,0,1-2.26-.47,6.73,6.73,0,0,1-3.71-5.31,14.65,14.65,0,0,1,6.14-13.88,6.25,6.25,0,0,1,10.13,4.48,13.83,13.83,0,0,1-1.13,7.8C194.23,151.35,190.46,154.24,187.05,154.24Zm4.29-19a5.82,5.82,0,0,0-3.05,1,12.66,12.66,0,0,0-5.24,11.85A4.83,4.83,0,0,0,185.6,152c2.8,1.23,6.83-1.47,8.79-5.9a11.75,11.75,0,0,0,1-6.64,4.83,4.83,0,0,0-2.54-3.83A3.63,3.63,0,0,0,191.34,135.27Z" style="fill:#263238"></path><path d="M280.5,213.71l-16.89-17h0a30,30,0,0,0-11.66-7.55,24,24,0,0,0-7.31-1.4h0a29.32,29.32,0,0,1-17.66,0,42.51,42.51,0,0,0-13.92,4h0L187.83,202l8.08,22.29,13.52-4.55.8,21L207.56,272l52.35.54-.68-28.45,0-20.59,7.55,7.36Z" style="fill:#5D8EFF"></path><path d="M266.29,201.14a8.89,8.89,0,0,1-.74,1.14,15.8,15.8,0,0,1-2.7,2.83,16.69,16.69,0,0,1-5.41,3,16,16,0,0,1-8.15.53,16.69,16.69,0,0,1-8.75-4.6,8.36,8.36,0,0,1-1.56-2.29,4.8,4.8,0,0,1-.46-2.86,3.17,3.17,0,0,1,1.86-2.34,4.17,4.17,0,0,1,3.07,0,4.6,4.6,0,0,1,2.41,2,6,6,0,0,1,.65,3.13,11,11,0,0,1-2.45,6,16.41,16.41,0,0,1-11.81,6.15,15.27,15.27,0,0,1-6.81-1.12,10.6,10.6,0,0,1-5.16-4.28,6.75,6.75,0,0,1-.28-6.39,5,5,0,0,1,5.49-2.51,4,4,0,0,1,2.44,1.86,5.25,5.25,0,0,1,.68,2.9,6,6,0,0,1-3,4.65,9.62,9.62,0,0,1-5,1.34,21.13,21.13,0,0,1-4.75-.62,22.78,22.78,0,0,1-7.65-2.91,10.07,10.07,0,0,1-3.94-4.72,7.25,7.25,0,0,1-.48-3.87,4.54,4.54,0,0,1,.38-1.3s-.16.44-.28,1.32a7.49,7.49,0,0,0,.56,3.77,9.89,9.89,0,0,0,3.92,4.55,22.63,22.63,0,0,0,7.57,2.8,20.73,20.73,0,0,0,4.67.58,9.19,9.19,0,0,0,4.8-1.31,5.48,5.48,0,0,0,2.74-4.3,4.8,4.8,0,0,0-.62-2.64,3.46,3.46,0,0,0-2.16-1.63,4.55,4.55,0,0,0-4.93,2.27,6.22,6.22,0,0,0,.29,5.91,10.09,10.09,0,0,0,4.91,4.05,14.8,14.8,0,0,0,6.58,1.08,15.91,15.91,0,0,0,11.43-5.94,10.44,10.44,0,0,0,2.36-5.7,5.43,5.43,0,0,0-.58-2.88,4.11,4.11,0,0,0-2.15-1.81,3.71,3.71,0,0,0-2.72-.05,2.71,2.71,0,0,0-1.59,2,4.48,4.48,0,0,0,.41,2.59,8.36,8.36,0,0,0,1.47,2.18,16.47,16.47,0,0,0,8.51,4.53,15.94,15.94,0,0,0,8-.44,17.1,17.1,0,0,0,5.38-2.87,17.76,17.76,0,0,0,2.74-2.75C266,201.52,266.27,201.12,266.29,201.14Z" style="fill:#263238"></path><path d="M257.73,245.55a4.55,4.55,0,0,1-1,.51,7.73,7.73,0,0,1-3.27.42,11.1,11.1,0,0,1-4.95-1.63,26.7,26.7,0,0,1-5.32-4.44,7.58,7.58,0,0,1-2.12-3.47,4.31,4.31,0,0,1,.11-2.22,3.08,3.08,0,0,1,1.46-1.8,3,3,0,0,1,2.39-.12,4.91,4.91,0,0,1,2,1.41,7,7,0,0,1,1.54,4.76,8.59,8.59,0,0,1-1.78,4.94,9.72,9.72,0,0,1-4.51,3.12,12.12,12.12,0,0,1-5.65.52,16,16,0,0,1-5.52-1.91,21,21,0,0,1-4.66-3.52A7.7,7.7,0,0,1,224,237a5,5,0,0,1,.7-2.76,4.28,4.28,0,0,1,2.16-1.76,5.35,5.35,0,0,1,5.15.8,6.07,6.07,0,0,1,2.1,4.52,7.11,7.11,0,0,1-1.41,4.5,10.74,10.74,0,0,1-7.26,4c-5.14.56-9.39-.6-11.76-2.26a7.06,7.06,0,0,1-2.24-2.42,5.11,5.11,0,0,1-.34-.79,1,1,0,0,1-.09-.28s.14.38.53,1a7.09,7.09,0,0,0,2.25,2.3c2.34,1.58,6.57,2.66,11.6,2.06a10.34,10.34,0,0,0,7-3.91,6.66,6.66,0,0,0,1.31-4.23,5.68,5.68,0,0,0-2-4.17,4.89,4.89,0,0,0-4.67-.71,3.91,3.91,0,0,0-1.91,1.56,4.54,4.54,0,0,0-.62,2.48,7.22,7.22,0,0,0,2.27,4.78,20.49,20.49,0,0,0,4.54,3.42,15.61,15.61,0,0,0,5.34,1.86,11.74,11.74,0,0,0,5.41-.49,9.35,9.35,0,0,0,4.29-2.94,8.08,8.08,0,0,0,1.69-4.66,6.51,6.51,0,0,0-1.41-4.44,4.48,4.48,0,0,0-1.81-1.29,2.52,2.52,0,0,0-2,.08,3.27,3.27,0,0,0-1.38,3.55,7.38,7.38,0,0,0,2,3.31,27.84,27.84,0,0,0,5.21,4.44,11.08,11.08,0,0,0,4.82,1.68,8.24,8.24,0,0,0,3.22-.32C257.37,245.73,257.72,245.52,257.73,245.55Z" style="fill:#263238"></path></g></svg>